<svg xmlns="http://www.w3.org/2000/svg" width="387.613" height="408.6" viewBox="0 0 387.613 408.6">
  <g id="Group_3" data-name="Group 3" transform="translate(0.013)">
    <g id="Group_1" data-name="Group 1">
      <g id="freepik--Shadows--inject-2_1_">
        <ellipse id="Ellipse_1" data-name="Ellipse 1" cx="24.6" cy="14.2" rx="24.6" ry="14.2" transform="translate(325.7 313.1)" fill="#e6e6e6"/>
        <path id="Path_1" data-name="Path 1" d="M144.9,251,49.8,306a4.1,4.1,0,0,0-1.6,1.6,3.881,3.881,0,0,0,1.6,5.4l161.9,93.5a15.722,15.722,0,0,0,15.7,0l95.1-54.9a4.1,4.1,0,0,0,1.6-1.6,3.881,3.881,0,0,0-1.6-5.4L160.6,251A15.722,15.722,0,0,0,144.9,251Z" fill="#e6e6e6"/>
        <path id="Path_2" data-name="Path 2" d="M195,252l-32.6,18.8a8.381,8.381,0,0,0-3.1,3.1,8.528,8.528,0,0,0,3.1,11.7L227.2,323a14.38,14.38,0,0,0,14.2,0L274,304.2a8.381,8.381,0,0,0,3.1-3.1,8.616,8.616,0,0,0-3.1-11.7L209.2,252A13.9,13.9,0,0,0,195,252Z" fill="#e6e6e6"/>
      </g>
      <g id="freepik--Plant--inject-2_1_">
        <path id="Path_3" data-name="Path 3" d="M336.5,255.5l10.6,2.8c-1.5-1.3-11.3-7.3-11.3-7.3l-2.3-9.1,10.6,3.3-11.5-7.7a41.292,41.292,0,0,0-7.2-12.1c9.2,1,25.3,11.2,30.1,25.2,8.7,24.9-6.6,39.8-6.6,39.8C337.3,281.2,336.5,255.5,336.5,255.5Z" fill="#68bbc8"/>
        <path id="Path_4" data-name="Path 4" d="M336.5,255.5l10.6,2.8c-1.5-1.3-11.3-7.3-11.3-7.3l-2.3-9.1,10.6,3.3-11.5-7.7a41.292,41.292,0,0,0-7.2-12.1c9.2,1,25.3,11.2,30.1,25.2,8.7,24.9-6.6,39.8-6.6,39.8C337.3,281.2,336.5,255.5,336.5,255.5Z" opacity="0.4"/>
        <path id="Path_5" data-name="Path 5" d="M345.2,241.3c11.7,18.1,3.8,49.3,3.8,49.3C358.9,257.2,345.2,241.2,345.2,241.3Z" fill="#fff"/>
        <path id="Path_6" data-name="Path 6" d="M338.4,326.9c2,2.5,6.5,4.2,11.9,4.2,5.3,0,9.9-1.7,11.9-4.2h0c7.1-9.3,6.9-32.3,6.9-32.3l-18.6-.2h-.2l-18.6.2C331.6,294.7,331.4,317.6,338.4,326.9Z" fill="#37474f"/>
        <ellipse id="Ellipse_2" data-name="Ellipse 2" cx="18.7" cy="10" rx="18.7" ry="10" transform="translate(331.6 284.7)" fill="#455a64"/>
        <path id="Path_7" data-name="Path 7" d="M364.2,296.9a3.691,3.691,0,0,0,.7-2.3c0-4-6.5-7.2-14.6-7.2-8,0-14.6,3.2-14.6,7.2a4.006,4.006,0,0,0,.8,2.3c1.9-2.9,7.4-4.9,13.8-4.9S362.2,294.1,364.2,296.9Z" fill="#263238"/>
        <ellipse id="Ellipse_3" data-name="Ellipse 3" cx="13.8" cy="4.9" rx="13.8" ry="4.9" transform="translate(336.5 292)" fill="#e0e0e0"/>
        <path id="Path_8" data-name="Path 8" d="M353.5,267a48.867,48.867,0,0,1,34.1-16.9c-2.5,2.2-11.1,17.4-11.1,17.4-4.9,0-11.9,2.5-11.9,2.5l9.4.7-5.3,8.1-11.3,2.8,10,.8s-1.2,2-3.8,6c-6.2,9.6-13.4,9.9-13.4,9.9C348,298.6,339.3,283.7,353.5,267Z" fill="#68bbc8"/>
        <path id="Path_9" data-name="Path 9" d="M374.4,254.7c-28.8,16.3-24.3,43.5-24.3,43.5C344.5,269,374.4,254.7,374.4,254.7Z" fill="#fff"/>
        <path id="Path_10" data-name="Path 10" d="M344.1,270.3a44.519,44.519,0,0,0-32.3-12.1c2.5,1.7,11.7,14.7,11.7,14.7,4.5-.4,11,1.1,11,1.1l-8.4,1.5,5.6,6.9,10.4,1.5-9,1.6s1.3,1.8,4,5.1c6.5,8.1,13,7.6,13,7.6C352,298.4,358.5,284.1,344.1,270.3Z" fill="#68bbc8"/>
        <path id="Path_11" data-name="Path 11" d="M344.1,270.3a44.519,44.519,0,0,0-32.3-12.1c2.5,1.7,11.7,14.7,11.7,14.7,4.5-.4,11,1.1,11,1.1l-8.4,1.5,5.6,6.9,10.4,1.5-9,1.6s1.3,1.8,4,5.1c6.5,8.1,13,7.6,13,7.6C352,298.4,358.5,284.1,344.1,270.3Z" opacity="0.2"/>
        <path id="Path_12" data-name="Path 12" d="M324.1,261.2c27.5,12.1,26,37,26,37C352.4,271.3,324.1,261.2,324.1,261.2Z" fill="#fff"/>
      </g>
      <g id="freepik--Character--inject-2_1_">
        <path id="Path_13" data-name="Path 13" d="M220.3,240.4,210.5,328v.3a2.669,2.669,0,0,0,2.6,2.7h0a2.59,2.59,0,0,0,2.6-2.2l13.9-84.9Z" fill="#263238"/>
        <path id="Path_14" data-name="Path 14" d="M172.3,211.9l-9.8,87.6v.3a2.669,2.669,0,0,0,2.6,2.7h0a2.59,2.59,0,0,0,2.6-2.2l13.9-84.9Z" fill="#263238"/>
        <path id="Path_15" data-name="Path 15" d="M259.1,228.6l10.1,67.8v.3a2.22,2.22,0,0,1-2.2,2.2,2.256,2.256,0,0,1-2.2-1.8L251.1,224Z" fill="#263238"/>
        <path id="Path_16" data-name="Path 16" d="M210.5,201.3l10.1,67.4v.3a2.22,2.22,0,0,1-2.2,2.2,2.256,2.256,0,0,1-2.2-1.8l-13.6-72.7Z" fill="#263238"/>
        <path id="Path_17" data-name="Path 17" d="M167.5,213.7a4.747,4.747,0,0,0-.8,6.6c13.5,17.3,40.6,26.3,51,29.3a11.9,11.9,0,0,0,8.1-.5c20.9-8.7,33.2-19,39.1-25a23.515,23.515,0,0,0,6-10.5c4.8-17.6,16.5-72.3-16.3-91.2C228,107.1,220.2,153,218,175.3a19.6,19.6,0,0,1-11.5,15.9C185.4,200.6,173,209.3,167.5,213.7Z" fill="#68bbc8"/>
        <path id="Path_18" data-name="Path 18" d="M167.5,213.7a4.747,4.747,0,0,0-.8,6.6c13.5,17.3,40.6,26.3,51,29.3a11.9,11.9,0,0,0,8.1-.5c20.9-8.7,33.2-19,39.1-25a23.515,23.515,0,0,0,6-10.5c4.8-17.6,16.5-72.3-16.3-91.2C228,107.1,220.2,153,218,175.3a19.6,19.6,0,0,1-11.5,15.9C185.4,200.6,173,209.3,167.5,213.7Z" opacity="0.5"/>
        <path id="Path_19" data-name="Path 19" d="M165.8,217.1V223h0a5.238,5.238,0,0,0,1,2.6c13.5,17.3,40.6,26.3,51,29.3a11.9,11.9,0,0,0,8.1-.5,134.248,134.248,0,0,0,29.8-17.2h0l8.5-6.5a28.228,28.228,0,0,0,10.2-15.3l.8-3c4.8-17.6,16.5-72.3-16.3-91.2-6.4-3.7-12.8-3.8-18-1.4h0a15.665,15.665,0,0,1,3-.5h.1a15.645,15.645,0,0,1,3.1.2h.1a9.362,9.362,0,0,1,1.6.4l.2.1a8.8,8.8,0,0,1,1.5.5l.2.1c.5.2,1.1.5,1.6.7l.4.2c.6.3,1.1.6,1.7.9,32.8,18.9,21.1,73.6,16.3,91.2a23.515,23.515,0,0,1-6,10.5c-5.9,6-18.2,16.3-39.1,25a12.516,12.516,0,0,1-8.1.5c-.3-.1-.7-.2-1-.3l-.4-.1-.7-.2-.6-.2-.6-.2-.7-.2-.5-.2-.8-.3-.5-.2-.9-.3-.5-.2-1-.3-.4-.1-1.1-.4-.4-.1-1.1-.4-.4-.1-1.2-.5-.3-.1-1.3-.5-.3-.1-1.4-.6-.2-.1-1.5-.6h0c-8.3-3.5-17.6-8.4-25.3-14.9h0c-.5-.4-1-.9-1.5-1.3h0l-1.4-1.3h0a18.478,18.478,0,0,1-1.4-1.4h0a16.607,16.607,0,0,1-1.3-1.4h0c-.8-.9-1.6-1.8-2.3-2.7a6.565,6.565,0,0,1-.7-3.2Z" fill="#68bbc8"/>
        <path id="Path_20" data-name="Path 20" d="M165.8,217.1V223h0a5.238,5.238,0,0,0,1,2.6c13.5,17.3,40.6,26.3,51,29.3a11.9,11.9,0,0,0,8.1-.5,134.248,134.248,0,0,0,29.8-17.2h0l8.5-6.5a28.228,28.228,0,0,0,10.2-15.3l.8-3c4.8-17.6,16.5-72.3-16.3-91.2-6.4-3.7-12.8-3.8-18-1.4h0a15.665,15.665,0,0,1,3-.5h.1a15.645,15.645,0,0,1,3.1.2h.1a9.362,9.362,0,0,1,1.6.4l.2.1a8.8,8.8,0,0,1,1.5.5l.2.1c.5.2,1.1.5,1.6.7l.4.2c.6.3,1.1.6,1.7.9,32.8,18.9,21.1,73.6,16.3,91.2a23.515,23.515,0,0,1-6,10.5c-5.9,6-18.2,16.3-39.1,25a12.516,12.516,0,0,1-8.1.5c-.3-.1-.7-.2-1-.3l-.4-.1-.7-.2-.6-.2-.6-.2-.7-.2-.5-.2-.8-.3-.5-.2-.9-.3-.5-.2-1-.3-.4-.1-1.1-.4-.4-.1-1.1-.4-.4-.1-1.2-.5-.3-.1-1.3-.5-.3-.1-1.4-.6-.2-.1-1.5-.6h0c-8.3-3.5-17.6-8.4-25.3-14.9h0c-.5-.4-1-.9-1.5-1.3h0l-1.4-1.3h0a18.478,18.478,0,0,1-1.4-1.4h0a16.607,16.607,0,0,1-1.3-1.4h0c-.8-.9-1.6-1.8-2.3-2.7a6.565,6.565,0,0,1-.7-3.2Z" opacity="0.6"/>
        <path id="Path_21" data-name="Path 21" d="M161.1,283.3c1.3-3.3,3.2-7.6,6-13.3,9.5-20,9.5-26.4,9.3-31.4s0-6,7.7-9.8S217.8,214,223.7,205c7.1-10.8,1-28.4,1-28.4l-22.9,12-33.7,20a27.918,27.918,0,0,0-13.2,17.9c-.2.9-.3,1.8-.5,2.6-1.6,13.5-4.5,36.3-6.8,50.6A20.348,20.348,0,0,0,161.1,283.3Z" fill="#68bbc8"/>
        <path id="Path_22" data-name="Path 22" d="M161.1,283.3c1.3-3.3,3.2-7.6,6-13.3,9.5-20,9.5-26.4,9.3-31.4s0-6,7.7-9.8S217.8,214,223.7,205c7.1-10.8,1-28.4,1-28.4l-22.9,12L168,208.7a27.9,27.9,0,0,0-12.9,16.6c-.3,1.3-.6,2.6-.8,3.9-1.6,13.5-4.5,36.3-6.8,50.6A21.922,21.922,0,0,0,161.1,283.3Z" opacity="0.7"/>
        <path id="Path_23" data-name="Path 23" d="M161.1,283.3a20.571,20.571,0,0,1-13.4-3.5,97.692,97.692,0,0,1-2.3,12c-2,6.1-17.6,21-17.6,21,5.3,9.9,20.3-6.1,24.8-10.2a24.6,24.6,0,0,0,5.1-6,3.287,3.287,0,0,0,.4-1.7C158,292.9,158.2,290.5,161.1,283.3Z" fill="#ffa8a7"/>
        <path id="Path_24" data-name="Path 24" d="M140.3,296.8a19.679,19.679,0,0,1-2.5,2.5c-2.3,1.9-11.2,5-13.7,5.9s-5,1.9-5,4.5c0,10,15.6,6.8,19.4,5.3s8.2-5.5,12.3-5.1,7.4.3,8.9-1.4.2-7.1.1-8.5a29.016,29.016,0,0,1,.1-4,3.618,3.618,0,0,0-1.8-3.4h0v2.2l-.9.7a5.876,5.876,0,0,1-3.6,1.3h0a1.11,1.11,0,0,1-1.1-1.1v-.6a2.007,2.007,0,0,0-1.4-1.9l-6.3-1.9a1.99,1.99,0,0,0-2.4,1.2l-.4,1.3A10.716,10.716,0,0,1,140.3,296.8Z" fill="#455a64"/>
        <path id="Path_25" data-name="Path 25" d="M119.1,310.8a.6.6,0,0,1-.1.4c0,10,15.6,6.8,19.4,5.3s8.2-5.5,12.3-5.1,7.4.3,8.9-1.4c.7-.7.8-2.2.7-3.7a3.891,3.891,0,0,1-.7,2.3c-1.5,1.6-4.8,1.8-8.9,1.4s-8.5,3.6-12.3,5.1C134.8,316.5,120.1,319.5,119.1,310.8Z" fill="#263238"/>
        <path id="Path_26" data-name="Path 26" d="M191.7,300.6c1.3-3.3,3.2-7.6,5.9-13.3,9.5-20,9.5-26.4,9.3-31.4s0-6,7.7-9.8,33.7-14.8,39.6-23.8c7.1-10.8,2.6-28.8,2.6-28.8l-21.6.4-40.4,34.3a27.753,27.753,0,0,0-9.8,18.2c-1.7,13.5-4.5,36.4-6.8,50.6A20.348,20.348,0,0,0,191.7,300.6Z" fill="#68bbc8"/>
        <path id="Path_27" data-name="Path 27" d="M191.7,300.6c1.3-3.3,3.2-7.6,5.9-13.3,9.5-20,9.5-26.4,9.3-31.4s0-6,7.7-9.8,33.7-14.8,39.6-23.8c7.1-10.8,2.6-28.8,2.6-28.8l-21.6.4-40.4,34.3a27.753,27.753,0,0,0-9.8,18.2c-1.7,13.5-4.5,36.4-6.8,50.6A20.348,20.348,0,0,0,191.7,300.6Z" opacity="0.7"/>
        <path id="Path_28" data-name="Path 28" d="M191.7,300.6a20.571,20.571,0,0,1-13.4-3.5,101.427,101.427,0,0,1-2.3,12c-2.1,6.1,2.7,14.9,7.3,10.8,3-2.7,4-5.2,5.1-6,.8-.6.4-2.4.4-3C188.6,308.9,188.7,307.8,191.7,300.6Z" fill="#ffa8a7"/>
        <path id="Path_29" data-name="Path 29" d="M207,174.8l-17.3,4.4c.5-10.6-7-11-7-11l13.9-6.3s.3-6.9,1.5-20.8a59.527,59.527,0,0,1,2.7-13.2,13.3,13.3,0,0,1,14.6-8.9h0Z" fill="#ffa8a7"/>
        <path id="Path_30" data-name="Path 30" d="M197,154.7a21.594,21.594,0,0,0,12.5,5.5l.7.1,5.2-41.2a13.508,13.508,0,0,0-14.7,7.9c-1.8,3.7-2.6,11.6-4.6,26.6Z" fill="#68bbc8"/>
        <path id="Path_31" data-name="Path 31" d="M197,154.7a21.594,21.594,0,0,0,12.5,5.5l.7.1,5.2-41.2a13.508,13.508,0,0,0-14.7,7.9c-1.8,3.7-2.6,11.6-4.6,26.6Z" opacity="0.2"/>
        <path id="Path_32" data-name="Path 32" d="M196.7,160.2c2.3,1,4,4.2,4,4.2a9.119,9.119,0,0,0-4.1-2.5Z" fill="#f28f8f"/>
        <path id="Path_33" data-name="Path 33" d="M257.7,198.7s-4.1,8.9-25.3,7.6-27.1-18-27.1-18l-.2-4.7s.3-42.8,2.4-54c2.6-13.7,12.9-10.4,12.9-10.4l12.8,4.4,15.6,7.5C259.9,142.2,257.7,198.7,257.7,198.7Z" fill="#68bbc8"/>
        <path id="Path_34" data-name="Path 34" d="M205.9,86.8s2.3,21.9-4.3,16.4-1.8-17.8-1.8-17.8Z" fill="#263238"/>
        <path id="Path_35" data-name="Path 35" d="M66.4,208.9V317.8h0a2.031,2.031,0,0,0,1.1,1.7,5.938,5.938,0,0,0,5.5,0,1.714,1.714,0,0,0,1.1-1.6h0v-86l136.2,78.7v90.7h0a2.031,2.031,0,0,0,1.1,1.7,5.938,5.938,0,0,0,5.5,0,1.751,1.751,0,0,0,1.1-1.7h0V310.6l80.1-46.2v85.4h0a1.848,1.848,0,0,0,1.1,1.7,5.938,5.938,0,0,0,5.5,0,1.751,1.751,0,0,0,1.1-1.7h0V259.9h0V241.4L158.1,156Z" fill="#455a64"/>
        <path id="Path_36" data-name="Path 36" d="M211.5,399.8a5.938,5.938,0,0,1,5.5,0c1.5.9,1.5,2.3,0,3.1a5.938,5.938,0,0,1-5.5,0C210,402.1,210,400.6,211.5,399.8Z" fill="#455a64"/>
        <rect id="Rectangle_1" data-name="Rectangle 1" width="7.7" height="93" transform="translate(210.3 308.3)" fill="#37474f"/>
        <ellipse id="Ellipse_4" data-name="Ellipse 4" cx="3.9" cy="2.2" rx="3.9" ry="2.2" transform="translate(298.1 347.6)" fill="#455a64"/>
        <rect id="Rectangle_2" data-name="Rectangle 2" width="7.7" height="93" transform="translate(298.2 256.7)" fill="#263238"/>
        <path id="Path_37" data-name="Path 37" d="M67.5,316.4a5.938,5.938,0,0,1,5.5,0c1.5.9,1.5,2.3,0,3.1a5.938,5.938,0,0,1-5.5,0C66,318.7,66,317.2,67.5,316.4Z" fill="#455a64"/>
        <rect id="Rectangle_3" data-name="Rectangle 3" width="7.7" height="93" transform="translate(66.4 224.9)" fill="#37474f"/>
        <path id="Path_38" data-name="Path 38" d="M161.9,246.4a5.3,5.3,0,0,1,4.9,0c1.4.8,1.4,2,0,2.8a5.3,5.3,0,0,1-4.9,0C160.6,248.4,160.6,247.1,161.9,246.4Z" fill="#455a64"/>
        <rect id="Rectangle_4" data-name="Rectangle 4" width="6.9" height="77.6" transform="translate(160.9 170.1)" fill="#455a64"/>
        <path id="Path_39" data-name="Path 39" d="M214.2,294.3v18.5l91.7-53V241.3Z" fill="#263238"/>
        <path id="Path_40" data-name="Path 40" d="M66.4,227.4l147.8,85.4V294.3L66.4,208.9Z" fill="#37474f"/>
        <path id="Path_41" data-name="Path 41" d="M66.4,208.9l147.8,85.4,91.7-53L158.1,156Z" fill="#455a64"/>
        <path id="Path_42" data-name="Path 42" d="M176.3,180.9l-33.6,19.8L198.6,233l33.6-19.4Z" fill="#ebebeb"/>
        <path id="Path_43" data-name="Path 43" d="M210.1,203.5l-12.6-7.3-7.9,4.6,12.6,7.3Z" fill="#e0e0e0"/>
        <path id="Path_44" data-name="Path 44" d="M181,198.1l33.2,20.1-17,10Z" fill="#e0e0e0"/>
        <path id="Path_45" data-name="Path 45" d="M198,177l-15.7,4.1c-3.8,3.6-9,4.4-10.8,4.6a22.741,22.741,0,0,0-5.5,2c-6.6,2.9-14-3.1-13.6-5.6s9.8-6.3,9.8-6.3c3.9-1.4,7.9-2.7,11.9-3.7l13.5-6.3C198.8,167.4,198,177,198,177Z" fill="#ffa8a7"/>
        <path id="Path_46" data-name="Path 46" d="M182.4,179.8a39.751,39.751,0,0,1-9.7,5.3c-4,4.7-1.8,7.8-.8,6.6s5.5-5.4,7-7.1A48.551,48.551,0,0,0,182.4,179.8Z" fill="#ffa8a7"/>
        <rect id="Rectangle_5" data-name="Rectangle 5" width="16" height="19.3" transform="translate(217.3 104.3)" fill="#ffa8a7"/>
        <path id="Path_47" data-name="Path 47" d="M217.2,104.3h14.7v5.4a26.056,26.056,0,0,1-14.6,14Z" fill="#f28f8f"/>
        <path id="Path_48" data-name="Path 48" d="M235.9,93.1c2.1,19.7-11.7,27.4-21.7,28.6-8.8,1-11.9-4.8-13.4-16.3C197.5,80.6,212,78.8,212,78.8S233.7,73.4,235.9,93.1Z" fill="#ffa8a7"/>
        <path id="Path_49" data-name="Path 49" d="M206.5,108.3l5.1,1.2-.5-8.6Z" fill="#f28f8f"/>
        <path id="Path_50" data-name="Path 50" d="M216.8,98.5h0a1.756,1.756,0,1,0,1.9,1.6A1.858,1.858,0,0,0,216.8,98.5Z" fill="#263238"/>
        <path id="Path_51" data-name="Path 51" d="M207.1,99.6a1.756,1.756,0,1,0-1.6,1.9,1.714,1.714,0,0,0,1.6-1.9Z" fill="#263238"/>
        <path id="Path_52" data-name="Path 52" d="M203.7,93.6c1.3-.9,2.6.4,2.6.4L203,96.2A2.377,2.377,0,0,1,203.7,93.6Z" fill="#263238"/>
        <path id="Path_53" data-name="Path 53" d="M220.1,95.2c1.4.7.9,2.5.9,2.5l-3.6-1.8A2.329,2.329,0,0,1,220.1,95.2Z" fill="#263238"/>
        <path id="Path_54" data-name="Path 54" d="M215,114.8c2.4-.7,1.9-3.6,1.9-3.6a9.161,9.161,0,0,1-5.5,1.9C211.4,113,212.6,115.5,215,114.8Z" fill="#f28f8f"/>
        <path id="Path_55" data-name="Path 55" d="M233.2,116.4c3.3-1.2,6.2-13,7.1-17.8,3.6-19.3-6.1-18.5-6.1-18.5-4.3-11.5-21.9-3.3-26.9-3s-8.7-2.1-11.5-2.9-1.8,7.7,2.8,11c11.9,8.6,25.4,1.9,28.3,2.1s1.5,17.8,2.9,17.9,3.6-4.5,3.6-4.5Z" fill="#263238"/>
        <path id="Path_56" data-name="Path 56" d="M232.8,112c6.1-.2,9.3-4.6,9.5-8.6.1-1.5-.5-5.8-5-5.7a4.41,4.41,0,0,0-3.9,3,10.134,10.134,0,0,0-.8,4.2Z" fill="#ffa8a7"/>
        <path id="Path_57" data-name="Path 57" d="M239.6,202.4l-10,5.2c-2.9,4.3-7.9,6.2-9.5,6.8a19.334,19.334,0,0,0-4.9,3.1c-5.8,4.3-14.3-.1-14.4-2.6s8.2-8.3,8.2-8.3c-4,1-5.9-1.7-4.4-2s7.3-2.4,9.4-3.1a36.991,36.991,0,0,1,5.8-1l11.4-9.1C242.5,190.6,239.6,202.4,239.6,202.4Z" fill="#ffa8a7"/>
        <path id="Path_58" data-name="Path 58" d="M259.5,146.5c.9,5.1,6.7,33,6.2,39.5s-26.1,16.5-26.1,16.5a14.254,14.254,0,0,0-8.4-11L247.4,180s-2.2-13.8-6.3-29.9,2.6-21.2,2.6-21.2C254,131.2,258.6,141.3,259.5,146.5Z" fill="#ffa8a7"/>
        <path id="Path_59" data-name="Path 59" d="M247.3,178.4a12.835,12.835,0,0,1,6.3,1.6,15.661,15.661,0,0,0-6.1-.1Z" fill="#f28f8f"/>
        <path id="Path_60" data-name="Path 60" d="M135.1,162.4a1.752,1.752,0,0,1,2.4-.5l53.3,32.7a5.643,5.643,0,0,1,2.6,3.9l5.7,37.1v.1s-.1.1-.1,0L140.7,202v-.1l-5.9-38.3A2.663,2.663,0,0,1,135.1,162.4Z" fill="#fafafa"/>
        <path id="Path_61" data-name="Path 61" d="M198.6,233l33.6-19.4h0a4.747,4.747,0,0,1-2.4,4.1l-31,18Z" fill="#e0e0e0"/>
        <path id="Path_62" data-name="Path 62" d="M164.2,193.1c-2.4-1.4-4.3-.3-4.3,2.5a9.575,9.575,0,0,0,4.3,7.4c2.4,1.4,4.3.3,4.3-2.5A9.06,9.06,0,0,0,164.2,193.1Z" fill="#e0e0e0"/>
        <path id="Path_63" data-name="Path 63" d="M233.7,80.6c1.6,1.3-1,5.2-1,5.2C230.9,83.3,232.1,79.3,233.7,80.6Z" fill="#263238"/>
        <path id="Path_64" data-name="Path 64" d="M236.8,83.9c.1,2-4.6,2.6-4.6,2.6C232.9,83.6,236.7,81.9,236.8,83.9Z" fill="#263238"/>
        <path id="Path_65" data-name="Path 65" d="M217.3,123.6s-3.3,6.8,4.6,7.9,11.3-7.9,11.3-7.9Z" fill="#ffa8a7"/>
        <path id="Path_66" data-name="Path 66" d="M256.4,136.6c4,5.4,8.7,30.8,8.3,33.6-1.8,10.6-20.4,3.1-20.4,3.1s-4.1-21.1-4.9-31.5,4.4-12.9,4.4-12.9A18.091,18.091,0,0,1,256.4,136.6Z" fill="#68bbc8"/>
        <path id="Path_67" data-name="Path 67" d="M256.4,136.6c4,5.4,8.7,30.8,8.3,33.6-1.8,10.6-20.4,3.1-20.4,3.1s-4.1-21.1-4.9-31.5,4.4-12.9,4.4-12.9A18.091,18.091,0,0,1,256.4,136.6Z" opacity="0.2"/>
        <path id="Path_68" data-name="Path 68" d="M188.6,310h0a2.686,2.686,0,0,1,1.2,2.5,59.33,59.33,0,0,1-1,7.2,9.884,9.884,0,0,1-4.1,5.9c-1,.9-2.9,2.4-4.7,7.8s-11,9.4-18.5,4.6-1.7-10.3,1.9-12.6a38.393,38.393,0,0,0,6.2-5.9,16.241,16.241,0,0,0,3.8-7.5l.7-2.9c.6-2.3,6.8-.7,9.5.5s.4,4.1,1.6,3.9a5.358,5.358,0,0,0,3-2.1Z" fill="#455a64"/>
        <path id="Path_69" data-name="Path 69" d="M158,332.6c-.9,2.2-.4,4.7,3.3,7,7.5,4.7,17,1.4,18.8-4s3.4-6.8,4.4-7.7,3.8-2,4.1-6.6v-.4a11.455,11.455,0,0,1-3.8,4.9c-1,.9-2.9,2.4-4.7,7.8s-11,9.4-18.5,4.6C158.7,336.3,157.8,334.4,158,332.6Z" fill="#263238"/>
        <path id="Path_70" data-name="Path 70" d="M197.4,266.4a.775.775,0,0,1,.2-1l28.1-16.2a1.986,1.986,0,0,1,2.1,0l24,13.8-30.2,17.4-23.9-13.8C197.5,266.6,197.4,266.5,197.4,266.4Z" fill="#68bbc8"/>
        <path id="Path_71" data-name="Path 71" d="M197.4,266.4a.775.775,0,0,1,.2-1l28.1-16.2a1.986,1.986,0,0,1,2.1,0l24,13.8-30.2,17.4-23.9-13.8C197.5,266.6,197.4,266.5,197.4,266.4Z" opacity="0.7"/>
        <path id="Path_72" data-name="Path 72" d="M199,265.9a.651.651,0,0,1,.2-.9l26.1-15.1a2.118,2.118,0,0,1,1.9,0l22.3,12.9L221.6,279l-22.3-12.9C199.2,266.1,199.1,266,199,265.9Z" fill="#fff"/>
        <path id="Path_73" data-name="Path 73" d="M199,265.6v-2.1l22.6,13V279Z" fill="#fff"/>
        <path id="Path_74" data-name="Path 74" d="M249.7,262.8v-2.5l-28.1,16.2V279Z" fill="#e0e0e0"/>
        <path id="Path_75" data-name="Path 75" d="M197.4,262.5a.775.775,0,0,1,.2-1l28.1-16.3a1.986,1.986,0,0,1,2.1,0l24,13.8-30.2,17.4-23.9-13.8C197.5,262.7,197.5,262.6,197.4,262.5Z" fill="#68bbc8"/>
        <path id="Path_76" data-name="Path 76" d="M197.4,262.5a.775.775,0,0,1,.2-1l28.1-16.3a1.986,1.986,0,0,1,2.1,0l24,13.8-30.2,17.4-23.9-13.8C197.5,262.7,197.5,262.6,197.4,262.5Z" opacity="0.5"/>
        <path id="Path_77" data-name="Path 77" d="M223.9,279.1c0,.1.1.2.2.3a1.135,1.135,0,0,0,.8.3,1.854,1.854,0,0,0,.7-.2,1.56,1.56,0,0,0,.8-1.3v-2.3a4.024,4.024,0,0,0-1.9-3.4h-.1a1.275,1.275,0,0,0-1.2,0,1.1,1.1,0,0,0-.6,1,.5.5,0,0,0,1,0v-.1c.1-.1.2-.2.4-.1l.1.1a2.851,2.851,0,0,1,1.4,2.5v2.3a.55.55,0,0,1-.3.5.3.3,0,0,1-.4,0Z" fill="#fff"/>
        <path id="Path_78" data-name="Path 78" d="M228.3,276.7c0,.1.1.2.2.3a1.135,1.135,0,0,0,.8.3,1.854,1.854,0,0,0,.7-.2,1.56,1.56,0,0,0,.8-1.3v-2.3a4.024,4.024,0,0,0-1.9-3.4h-.1a1.275,1.275,0,0,0-1.2,0,1.1,1.1,0,0,0-.6,1,.5.5,0,0,0,1,0c0-.1,0-.2.1-.2h.4a2.851,2.851,0,0,1,1.4,2.5v2.3a.55.55,0,0,1-.3.5.3.3,0,0,1-.4,0Z" fill="#fff"/>
        <path id="Path_79" data-name="Path 79" d="M232.8,274c0,.1.1.2.2.3a1.135,1.135,0,0,0,.8.3,1.854,1.854,0,0,0,.7-.2,1.56,1.56,0,0,0,.8-1.3v-2.3a4.024,4.024,0,0,0-1.9-3.4h-.1a1.275,1.275,0,0,0-1.2,0,1.1,1.1,0,0,0-.6,1,.5.5,0,0,0,1,0c0-.1,0-.2.1-.2h.4a2.851,2.851,0,0,1,1.4,2.5V273a.55.55,0,0,1-.3.5.3.3,0,0,1-.4,0Z" fill="#fff"/>
        <path id="Path_80" data-name="Path 80" d="M237.3,271.5c0,.1.1.2.2.3a1.135,1.135,0,0,0,.8.3,1.854,1.854,0,0,0,.7-.2,1.56,1.56,0,0,0,.8-1.3v-2.3a4.024,4.024,0,0,0-1.9-3.4h-.1a1.275,1.275,0,0,0-1.2,0,1.1,1.1,0,0,0-.6,1,.5.5,0,0,0,1,0c0-.1,0-.2.1-.2h.4a2.851,2.851,0,0,1,1.4,2.5v2.3a.55.55,0,0,1-.3.5.3.3,0,0,1-.4,0Z" fill="#fff"/>
        <path id="Path_81" data-name="Path 81" d="M241.7,268.9c0,.1.1.2.2.3a1.135,1.135,0,0,0,.8.3,1.854,1.854,0,0,0,.7-.2,1.56,1.56,0,0,0,.8-1.3v-2.3a4.024,4.024,0,0,0-1.9-3.4h-.1a1.275,1.275,0,0,0-1.2,0,1.1,1.1,0,0,0-.6,1,.5.5,0,0,0,1,0c0-.1,0-.2.1-.2h.4a2.851,2.851,0,0,1,1.4,2.5v2.3a.55.55,0,0,1-.3.5.3.3,0,0,1-.4,0Z" fill="#fff"/>
        <path id="Path_82" data-name="Path 82" d="M246.2,266.3c0,.1.1.2.2.3a1.135,1.135,0,0,0,.8.3,1.854,1.854,0,0,0,.7-.2,1.56,1.56,0,0,0,.8-1.3v-2.3a4.024,4.024,0,0,0-1.9-3.4l-.1-.1c-.2-.1-.4-.1-.5-.2a1.305,1.305,0,0,0-1.3,1.2.5.5,0,0,0,1,0c0-.1,0-.2.1-.2h.4a2.851,2.851,0,0,1,1.4,2.5v2.3a.55.55,0,0,1-.3.5.3.3,0,0,1-.4,0Z" fill="#fff"/>
        <path id="Path_83" data-name="Path 83" d="M228.2,237l25.9,15-33.7,19.4-25.8-14.9Z" fill="#e6e6e6"/>
        <path id="Path_84" data-name="Path 84" d="M225,233.8l27,12.7-31.9,22.2-27-12.7Z" fill="#fafafa"/>
        <path id="Path_85" data-name="Path 85" d="M255.3,239.5h0a4.565,4.565,0,0,0,2.6,3.4,14.4,14.4,0,0,0,12.8,0,4.353,4.353,0,0,0,2.6-3.4h0l2-23.2h-22Z" fill="#68bbc8"/>
        <path id="Path_86" data-name="Path 86" d="M255.6,220.1c4.8,2.8,12.7,2.8,17.5,0,2.4-1.4,3.6-3.2,3.6-5v-1.9h-.4a7.082,7.082,0,0,0-3.2-3.2c-4.8-2.8-12.7-2.8-17.5,0a7.082,7.082,0,0,0-3.2,3.2H252V215C252,216.8,253.2,218.7,255.6,220.1Z" fill="#e0e0e0"/>
        <path id="Path_87" data-name="Path 87" d="M255.6,208.2c4.8-2.8,12.7-2.8,17.5,0s4.8,7.3,0,10.1-12.7,2.8-17.5,0S250.8,211,255.6,208.2Z" fill="#ebebeb"/>
        <path id="Path_88" data-name="Path 88" d="M257.4,216.6a15.674,15.674,0,0,0,14,0c1.9-1.1,2.9-2.6,2.9-4V211h-.4a6.506,6.506,0,0,0-2.6-2.6,15.674,15.674,0,0,0-14,0,6.506,6.506,0,0,0-2.6,2.6h-.4v1.5C254.4,214,255.4,215.4,257.4,216.6Z" fill="#e0e0e0"/>
        <path id="Path_89" data-name="Path 89" d="M257.4,207.1a15.674,15.674,0,0,1,14,0c3.9,2.2,3.9,5.9,0,8.1a15.674,15.674,0,0,1-14,0C253.5,212.9,253.5,209.3,257.4,207.1Z" fill="#f5f5f5"/>
        <path id="Path_90" data-name="Path 90" d="M259,207.8a11.958,11.958,0,0,1,8.7-.9,9.494,9.494,0,0,1,2.1.9c.1.1.2.1.3.2,2.7,1.7,2.6,4.3-.3,6a12.073,12.073,0,0,1-10.8,0C256,212.3,256,209.5,259,207.8Z" fill="#f0f0f0"/>
        <path id="Path_91" data-name="Path 91" d="M272,211.3c.2-1.3-.5-2.6-2.2-3.6a12.073,12.073,0,0,0-10.8,0c-1.7,1-2.4,2.3-2.2,3.6a4,4,0,0,1,2.2-2.7,12.073,12.073,0,0,1,10.8,0A4,4,0,0,1,272,211.3Z" fill="#e0e0e0"/>
        <path id="Path_92" data-name="Path 92" d="M267.7,207.5v-.6a9.494,9.494,0,0,1,2.1.9c.1.1.2.1.3.2v.9l-2.2,1.6-2.2-1.4Z" fill="#e0e0e0"/>
      </g>
      <g id="freepik--Screen--inject-2_1_">
        <path id="Path_93" data-name="Path 93" d="M0,82V185.2a4.842,4.842,0,0,0,1.5,3.9L6,192.2l.2-3.9,123.2-71.2c2.8-1.5,5-5.9,5-9.5V7.2l2.9-3.6L133,.6a3,3,0,0,0-3.6,0L5,72.5C2.3,74.1,0,78.3,0,82Z" fill="#68bbc8"/>
        <path id="Path_94" data-name="Path 94" d="M0,82V185.2a4.842,4.842,0,0,0,1.5,3.9L6,192.2l.2-3.9,123.2-71.2c2.8-1.5,5-5.9,5-9.5V7.2l2.9-3.6L133,.6a3,3,0,0,0-3.6,0L5,72.5C2.3,74.1,0,78.3,0,82Z" opacity="0.3"/>
        <path id="Path_95" data-name="Path 95" d="M4.3,188.1V84.9c0-3.7,2.2-8,5-9.5L133.8,3.5c2.8-1.6,5,.1,5,3.8V110.5c0,3.7-2.3,7.9-5,9.5L9.3,191.9C6.5,193.5,4.3,191.8,4.3,188.1Z" fill="#68bbc8"/>
        <path id="Path_96" data-name="Path 96" d="M4.3,188.1V84.9c0-3.7,2.2-8,5-9.5L133.8,3.5c2.8-1.6,5,.1,5,3.8V110.5c0,3.7-2.3,7.9-5,9.5L9.3,191.9C6.5,193.5,4.3,191.8,4.3,188.1Z" fill="#68bbc8"/>
        <path id="Path_97" data-name="Path 97" d="M4.3,84.9v5L138.8,12.3v-5c0-3.7-2.3-5.4-5-3.8L9.3,75.4C6.5,77,4.3,81.2,4.3,84.9Z" fill="#455a64"/>
        <path id="Path_98" data-name="Path 98" d="M135.7,3.9c1.2,0,2,1.3,2,3.4V110.5c0,3.3-2.1,7.3-4.5,8.7L8.8,191a3.805,3.805,0,0,1-1.5.5c-1.2,0-2-1.4-2-3.4V84.9c0-3.3,2.1-7.3,4.5-8.7L134.3,4.4a2.389,2.389,0,0,1,1.4-.5h0m.1-1a3.606,3.606,0,0,0-2,.6L9.3,75.4c-2.8,1.5-5,5.9-5,9.5V188.1c0,2.7,1.2,4.4,3,4.4a3.606,3.606,0,0,0,2-.6L133.8,120c2.8-1.6,5-5.9,5-9.5V7.3c-.1-2.8-1.3-4.4-3-4.4Z" fill="#68bbc8"/>
        <path id="Path_99" data-name="Path 99" d="M81,57.6a1.1,1.1,0,0,1-1-.6.954.954,0,0,1,.5-1.4l47.4-27.4a.984.984,0,0,1,1.3.4,1.12,1.12,0,0,1-.3,1.5L81.6,57.4c-.2.1-.4.1-.6.2Z" fill="#fff"/>
        <path id="Path_100" data-name="Path 100" d="M14.4,96.1a1.1,1.1,0,0,1-1-.6.954.954,0,0,1,.5-1.4L49,73.8a1.03,1.03,0,0,1,1,1.8L14.9,95.9a1.69,1.69,0,0,1-.5.2Z" fill="#fff"/>
        <path id="Path_101" data-name="Path 101" d="M57.1,71.4a1.1,1.1,0,0,1-1-.6.954.954,0,0,1,.5-1.4l14.3-8.2.1-.1a1.022,1.022,0,0,1,1.4.5,1.111,1.111,0,0,1-.5,1.4L57.6,71.2c-.2.1-.3.2-.5.2Z" fill="#fff"/>
        <path id="Path_102" data-name="Path 102" d="M80.1,123.4a.989.989,0,0,1,.4-1.4l47.4-27.4a.984.984,0,0,1,1.3.4,1.12,1.12,0,0,1-.3,1.5L81.5,123.9a.9.9,0,0,1-.5.1A1.8,1.8,0,0,1,80.1,123.4Z" fill="#fff"/>
        <path id="Path_103" data-name="Path 103" d="M13.4,161.9a1.012,1.012,0,0,1,.4-1.4l35.1-20.3a1.03,1.03,0,1,1,1,1.8L14.8,162.3a.9.9,0,0,1-.5.1A1.193,1.193,0,0,1,13.4,161.9Z" fill="#fff"/>
        <path id="Path_104" data-name="Path 104" d="M56.2,137.2a1.012,1.012,0,0,1,.4-1.4l14.3-8.2.1-.1a1.022,1.022,0,0,1,1.4.5,1.111,1.111,0,0,1-.5,1.4l-14.3,8.2a.9.9,0,0,1-.5.1A1.05,1.05,0,0,1,56.2,137.2Z" fill="#fff"/>
        <path id="Path_105" data-name="Path 105" d="M81,139.5a1.1,1.1,0,0,1-1-.6.954.954,0,0,1,.5-1.4l47.4-27.3a1.03,1.03,0,0,1,1,1.8L81.5,139.4a.749.749,0,0,1-.5.1Z" fill="#fff"/>
        <path id="Path_106" data-name="Path 106" d="M28.4,168.9h0a.989.989,0,0,1,.4-1.4L49,155.9l.1-.1a1.022,1.022,0,0,1,1.4.5,1.111,1.111,0,0,1-.5,1.4L29.8,169.3a.9.9,0,0,1-.5.1A1.05,1.05,0,0,1,28.4,168.9Z" fill="#fff"/>
        <path id="Path_107" data-name="Path 107" d="M57.1,153.4a1.1,1.1,0,0,1-1-.6.954.954,0,0,1,.5-1.4l14.3-8.2h0a1.03,1.03,0,1,1,1,1.8l-14.3,8.2c-.2.1-.3.2-.5.2Z" fill="#fff"/>
        <path id="Path_108" data-name="Path 108" d="M103.8,51.7a.989.989,0,0,1,.4-1.4L128,36.6a1.068,1.068,0,0,1,1.1.3,1.007,1.007,0,0,1-.1,1.5L105.2,52c-.2.1-.3.2-.5.2A.937.937,0,0,1,103.8,51.7Z" fill="#fff"/>
        <path id="Path_109" data-name="Path 109" d="M36.3,91.7a1.1,1.1,0,0,1-1-.6.954.954,0,0,1,.5-1.4L70.9,69.4l.1-.1a1.022,1.022,0,0,1,1.4.5,1.111,1.111,0,0,1-.5,1.4L36.8,91.5a1.689,1.689,0,0,1-.5.2Z" fill="#fff"/>
        <path id="Path_110" data-name="Path 110" d="M79.8,65.5a.989.989,0,0,1,.4-1.4l14.3-8.2h0a1.03,1.03,0,0,1,1,1.8L81.2,65.9a.749.749,0,0,1-.5.1A1.05,1.05,0,0,1,79.8,65.5Z" fill="#fff"/>
        <path id="Path_111" data-name="Path 111" d="M80.1,73.5a.989.989,0,0,1,.4-1.4l47.4-27.4a1.072,1.072,0,0,1,1.1,1.8L81.6,73.9c-.2.1-.3.2-.5.2A1.1,1.1,0,0,1,80.1,73.5Z" fill="#fff"/>
        <path id="Path_112" data-name="Path 112" d="M39.2,97.1a1.012,1.012,0,0,1,.4-1.4L49,90.3l.1-.1a1.022,1.022,0,0,1,1.4.5,1.111,1.111,0,0,1-.5,1.4l-9.4,5.4a.9.9,0,0,1-.5.1A.76.76,0,0,1,39.2,97.1Z" fill="#fff"/>
        <path id="Path_113" data-name="Path 113" d="M100,71.4a1.1,1.1,0,0,1-1-.6.954.954,0,0,1,.5-1.4l9.4-5.4a1.03,1.03,0,1,1,1,1.8l-9.4,5.4a.764.764,0,0,1-.5.2Z" fill="#fff"/>
        <path id="Path_114" data-name="Path 114" d="M57.1,87.9a1.1,1.1,0,0,1-1-.6.954.954,0,0,1,.5-1.4l14.3-8.2h0a1.03,1.03,0,0,1,1,1.8L57.6,87.7c-.2.1-.3.2-.5.2Z" fill="#fff"/>
        <path id="Path_115" data-name="Path 115" d="M113.2,63.7a1,1,0,0,1-1-.6,1.111,1.111,0,0,1,.5-1.4l15.2-8.8a.984.984,0,0,1,1.3.4,1.12,1.12,0,0,1-.3,1.5l-15.2,8.8a.749.749,0,0,1-.5.1Z" fill="#fff"/>
        <path id="Path_116" data-name="Path 116" d="M79.7,81.9a.954.954,0,0,1,.5-1.4l14.3-8.2.1-.1a1.022,1.022,0,0,1,1.4.5,1.111,1.111,0,0,1-.5,1.4L81.2,82.4a.9.9,0,0,1-.5.1A1.1,1.1,0,0,1,79.7,81.9Z" fill="#fff"/>
        <path id="Path_117" data-name="Path 117" d="M80.1,90.6a.989.989,0,0,1,.4-1.4l47.4-27.4a.984.984,0,0,1,1.3.4,1.12,1.12,0,0,1-.3,1.5L81.6,91a.9.9,0,0,1-.5.1A.876.876,0,0,1,80.1,90.6Z" fill="#fff"/>
        <path id="Path_118" data-name="Path 118" d="M13.4,129.1a1.012,1.012,0,0,1,.4-1.4l35.1-20.3a1.03,1.03,0,0,1,1,1.8L14.8,129.5a.9.9,0,0,1-.5.1A1.193,1.193,0,0,1,13.4,129.1Z" fill="#fff"/>
        <path id="Path_119" data-name="Path 119" d="M56.2,104.5a.989.989,0,0,1,.4-1.4l14.3-8.2.1-.1a1.022,1.022,0,0,1,1.4.5,1.111,1.111,0,0,1-.5,1.4l-14.3,8.2a.9.9,0,0,1-.5.1A1.05,1.05,0,0,1,56.2,104.5Z" fill="#fff"/>
        <path id="Path_120" data-name="Path 120" d="M104.7,85.8a1.1,1.1,0,0,1-1-.6.954.954,0,0,1,.5-1.4L128,70.1a1.03,1.03,0,0,1,1,1.8L105.2,85.6c-.2.1-.4.1-.5.2Z" fill="#fff"/>
        <path id="Path_121" data-name="Path 121" d="M36.3,125.3a1.1,1.1,0,0,1-1-.6.954.954,0,0,1,.5-1.4l35-20.3a1.03,1.03,0,1,1,1,1.8L36.7,125.1a.758.758,0,0,1-.4.2Z" fill="#fff"/>
        <path id="Path_122" data-name="Path 122" d="M79.8,99.1a.989.989,0,0,1,.4-1.4l14.3-8.2.1-.1a1.022,1.022,0,0,1,1.4.5,1.111,1.111,0,0,1-.5,1.4L81.2,99.5a.9.9,0,0,1-.5.1A1.05,1.05,0,0,1,79.8,99.1Z" fill="#fff"/>
        <path id="Path_123" data-name="Path 123" d="M81,107.7a1.1,1.1,0,0,1-1-.6.954.954,0,0,1,.5-1.4l47.4-27.4a.984.984,0,0,1,1.3.4,1.12,1.12,0,0,1-.3,1.5L81.5,107.6a1.087,1.087,0,0,0-.5.1Z" fill="#fff"/>
        <path id="Path_124" data-name="Path 124" d="M40.1,131.3a1.1,1.1,0,0,1-1-.6.954.954,0,0,1,.5-1.4l9.4-5.4.1-.1a1.022,1.022,0,0,1,1.4.5,1.111,1.111,0,0,1-.5,1.4l-9.4,5.4a.764.764,0,0,1-.5.2Z" fill="#fff"/>
        <path id="Path_125" data-name="Path 125" d="M100,105a1.1,1.1,0,0,1-1-.6.954.954,0,0,1,.5-1.4l9.4-5.4a1.03,1.03,0,1,1,1,1.8l-9.4,5.4c-.1.1-.3.1-.5.2Z" fill="#fff"/>
        <path id="Path_126" data-name="Path 126" d="M56.1,120.9a.954.954,0,0,1,.5-1.4l14.3-8.3a1.03,1.03,0,1,1,1,1.8l-14.3,8.3a.9.9,0,0,1-.5.1A.877.877,0,0,1,56.1,120.9Z" fill="#fff"/>
        <path id="Path_127" data-name="Path 127" d="M113.2,97.3a1.1,1.1,0,0,1-1-.6.954.954,0,0,1,.5-1.4l15.2-8.8a1.1,1.1,0,0,1,1.1,1.9l-15.2,8.8a1.268,1.268,0,0,1-.6.1Z" fill="#fff"/>
        <path id="Path_128" data-name="Path 128" d="M80.7,116.1a1.1,1.1,0,0,1-1-.6.954.954,0,0,1,.5-1.4l14.3-8.2h0a1.03,1.03,0,1,1,1,1.8l-14.3,8.2a.764.764,0,0,1-.5.2Z" fill="#fff"/>
        <path id="Path_129" data-name="Path 129" d="M100,120.8a1,1,0,0,1-1-.6,1.111,1.111,0,0,1,.5-1.4l9.4-5.4.1-.1a1.022,1.022,0,0,1,1.4.5,1.111,1.111,0,0,1-.5,1.4l-9.4,5.4c-.1.1-.3.1-.5.2Z" fill="#fff"/>
        <path id="Path_130" data-name="Path 130" d="M113.2,113.1a1.1,1.1,0,0,1-1-.6.954.954,0,0,1,.5-1.4l15.2-8.8a1.03,1.03,0,0,1,1,1.8l-15.2,8.8c-.1.2-.3.2-.5.2Z" fill="#fff"/>
        <path id="Path_131" data-name="Path 131" d="M79.8,131.4a.989.989,0,0,1,.4-1.4l14.3-8.2a1.03,1.03,0,1,1,1,1.8l-14.3,8.2a.9.9,0,0,1-.5.1A1.05,1.05,0,0,1,79.8,131.4Z" fill="#fff"/>
        <path id="Path_132" data-name="Path 132" d="M119.4,38.9l1.9,1-.2,39.4v1.3l-1.5-.8h0c-.4-.2-.6-.5-.6-1.2V40.3A4.292,4.292,0,0,1,119.4,38.9Z" fill="#263238"/>
        <path id="Path_133" data-name="Path 133" d="M120.4,37.7l46-26.5a.972.972,0,0,1,.9-.1h0l1.5.9-1.1.6L121.3,40l-1.9-1A2.56,2.56,0,0,1,120.4,37.7Z" fill="#37474f"/>
        <path id="Path_134" data-name="Path 134" d="M121.1,39.7a2.94,2.94,0,0,1,1-1.2l45.7-26.3a.755.755,0,0,1,.8-.1c.1,0,.1,0,.1.1a1.19,1.19,0,0,1,.4,1.1v38a3.143,3.143,0,0,1-1.4,2.6L122,80.2a.94.94,0,0,1-.9.1H121a1.19,1.19,0,0,1-.4-1.1v-38A4.423,4.423,0,0,1,121.1,39.7Z" fill="#455a64"/>
        <path id="Path_135" data-name="Path 135" d="M168.5,12.2h.3a1.4,1.4,0,0,1,.3.9V51.3a2.813,2.813,0,0,1-1.3,2.4l-46,26.5a.6.6,0,0,1-.4.1h-.3a1.222,1.222,0,0,1-.3-.9V41.2a2.768,2.768,0,0,1,.3-1.3,3.126,3.126,0,0,1,.9-1.1l46-26.5a1.087,1.087,0,0,1,.5-.1m0-.3a.764.764,0,0,0-.5.2L122,38.6a2.94,2.94,0,0,0-1,1.2,5.732,5.732,0,0,0-.4,1.4V79.5a1.5,1.5,0,0,0,.4,1.1l.1.1c.1,0,.2.1.3.1a.764.764,0,0,0,.5-.2l46-26.5a3.189,3.189,0,0,0,1.4-2.7V13.2a1.5,1.5,0,0,0-.4-1.1l-.1-.1a.367.367,0,0,1-.3-.1Z" fill="#37474f"/>
        <path id="Path_136" data-name="Path 136" d="M128.1,10.1c.9-.5,1.7-.1,1.7,1a3.759,3.759,0,0,1-1.7,3c-.9.5-1.7.1-1.7-1A4.043,4.043,0,0,1,128.1,10.1Z" fill="#ff5d58"/>
        <path id="Path_137" data-name="Path 137" d="M121.8,14.1c.9-.5,1.7-.1,1.7,1a4.043,4.043,0,0,1-1.7,3c-1,.5-1.7.1-1.7-1A3.488,3.488,0,0,1,121.8,14.1Z" fill="#febb2c"/>
        <path id="Path_138" data-name="Path 138" d="M115.4,18c.9-.5,1.7-.1,1.7,1a4.043,4.043,0,0,1-1.7,3c-.9.5-1.7.1-1.7-1A4.043,4.043,0,0,1,115.4,18Z" fill="#26c640"/>
      </g>
    </g>
    <g id="Group_2" data-name="Group 2">
      <path id="Path_139" data-name="Path 139" d="M151.7,45.7v3.2l10.7-10.8V34.8l-10.7,1.5v3.2l7.4-1.2Z" fill="#fafafa"/>
      <path id="Path_140" data-name="Path 140" d="M151.3,30.1l-3,1.8-7.5,28.6,3.1-1.8Z" fill="#fafafa"/>
      <path id="Path_141" data-name="Path 141" d="M140.2,42.9v3.2l-7.4,7.4,7.4-1.1v3.2l-10.6,1.5V53.7Z" fill="#fafafa"/>
    </g>
  </g>
</svg>
